<?xml version="1.0" encoding="utf-8"?>
<!-- Generator: Adobe Illustrator 21.0.0, SVG Export Plug-In . SVG Version: 6.00 Build 0)  -->
<svg version="1.1" id="图层_1" xmlns="http://www.w3.org/2000/svg" xmlns:xlink="http://www.w3.org/1999/xlink" x="0px" y="0px"
	 viewBox="0 0 238 200" style="enable-background:new 0 0 238 200;" xml:space="preserve">
<style type="text/css">
	.st0{fill:#040000;}
	.st1{fill:#FFFFFF;}
	.st2{fill-rule:evenodd;clip-rule:evenodd;fill:#050101;}
	.st3{fill-rule:evenodd;clip-rule:evenodd;fill:#FFFFFF;}
</style>
<g>
	<g>
		<path class="st1" d="M97.345,92.965H77.39l0.006-39.897h19.948c10.999,0,19.948,8.949,19.948,19.948
			C117.293,84.016,108.344,92.965,97.345,92.965z M89.462,80.9h7.883c4.346,0,7.883-3.536,7.883-7.883
			c0-4.346-3.536-7.883-7.883-7.883h-7.883V80.9z"/>
	</g>
	<g>
		<path class="st1" d="M160.171,92.965h-19.954c-10.999,0-19.948-8.949-19.948-19.949c0-10.999,8.949-19.948,19.948-19.948h19.954
			v12.066h-19.954c-4.346,0-7.883,3.536-7.883,7.883c0,4.347,3.536,7.883,7.883,7.883h19.954V92.965z"/>
	</g>
	<g>
		<path class="st1" d="M97.345,136.932c-10.999,0-19.948-8.949-19.948-19.948V97.03h12.066v19.954c0,4.346,3.536,7.883,7.883,7.883
			s7.883-3.536,7.883-7.883V97.03h12.066v19.954C117.293,127.982,108.344,136.932,97.345,136.932z"/>
	</g>
	<g>
		
			<rect x="117.935" y="110.611" transform="matrix(0.7071 -0.7071 0.7071 0.7071 -41.4074 133.3204)" class="st1" width="44.587" height="12.065"/>
	</g>
	<g>
		
			<rect x="134.548" y="94.35" transform="matrix(0.7071 -0.7071 0.7071 0.7071 -41.3039 133.5735)" class="st1" width="12.065" height="44.587"/>
	</g>
</g>
<g>
	<path class="st1" d="M85.983,154.451h3.17c0.715,0,1.26,0.055,1.635,0.164c0.504,0.148,0.936,0.412,1.295,0.791
		s0.633,0.843,0.82,1.392s0.281,1.226,0.281,2.03c0,0.707-0.088,1.316-0.264,1.828c-0.215,0.625-0.521,1.131-0.92,1.518
		c-0.301,0.293-0.707,0.521-1.219,0.686c-0.383,0.121-0.895,0.182-1.535,0.182h-3.264V154.451z M87.717,155.904v5.689h1.295
		c0.484,0,0.834-0.027,1.049-0.082c0.281-0.07,0.515-0.189,0.7-0.357s0.337-0.444,0.454-0.829s0.176-0.909,0.176-1.573
		s-0.059-1.174-0.176-1.529s-0.281-0.633-0.492-0.832s-0.479-0.334-0.803-0.404c-0.242-0.055-0.717-0.082-1.424-0.082H87.717z"/>
	<path class="st1" d="M94.66,163.04v-8.59h3.65c0.918,0,1.585,0.077,2.001,0.231s0.749,0.429,0.999,0.823s0.375,0.846,0.375,1.354
		c0,0.645-0.189,1.177-0.568,1.597s-0.945,0.685-1.699,0.794c0.375,0.219,0.685,0.459,0.929,0.721s0.573,0.727,0.987,1.395
		l1.049,1.676h-2.074l-1.254-1.869c-0.445-0.668-0.75-1.089-0.914-1.263s-0.338-0.293-0.521-0.357s-0.475-0.097-0.873-0.097h-0.352
		v3.586H94.66z M96.395,158.083h1.283c0.832,0,1.352-0.035,1.559-0.105s0.369-0.191,0.486-0.363s0.176-0.387,0.176-0.645
		c0-0.289-0.077-0.522-0.231-0.7s-0.372-0.29-0.653-0.337c-0.141-0.02-0.562-0.029-1.266-0.029h-1.354V158.083z"/>
	<path class="st1" d="M103.321,163.04v-8.59h6.369v1.453h-4.635v1.904h4.312v1.447h-4.312v2.338h4.799v1.447H103.321z"/>
	<path class="st1" d="M119.071,163.04h-1.887l-0.75-1.951H113l-0.709,1.951h-1.84l3.346-8.59h1.834L119.071,163.04z
		 M115.877,159.642l-1.184-3.188l-1.16,3.188H115.877z"/>
	<path class="st1" d="M119.967,163.04v-8.59h2.596l1.559,5.859l1.541-5.859h2.602v8.59h-1.611v-6.762l-1.705,6.762h-1.67
		l-1.699-6.762v6.762H119.967z"/>
	<path class="st1" d="M135.483,159.882l1.682,0.533c-0.258,0.938-0.687,1.634-1.286,2.089s-1.36,0.683-2.282,0.683
		c-1.141,0-2.078-0.39-2.812-1.169s-1.102-1.845-1.102-3.196c0-1.43,0.369-2.54,1.107-3.331s1.709-1.187,2.912-1.187
		c1.051,0,1.904,0.311,2.561,0.932c0.391,0.367,0.684,0.895,0.879,1.582l-1.717,0.41c-0.102-0.445-0.313-0.797-0.636-1.055
		s-0.714-0.387-1.175-0.387c-0.637,0-1.153,0.229-1.55,0.686s-0.595,1.197-0.595,2.221c0,1.086,0.195,1.859,0.586,2.32
		s0.898,0.691,1.523,0.691c0.461,0,0.857-0.146,1.189-0.439S135.338,160.511,135.483,159.882z"/>
	<path class="st1" d="M146.399,163.04h-1.887l-0.75-1.951h-3.434l-0.709,1.951h-1.84l3.346-8.59h1.834L146.399,163.04z
		 M143.205,159.642l-1.184-3.188l-1.16,3.188H143.205z"/>
	<path class="st1" d="M148.362,163.04v-7.137h-2.549v-1.453h6.826v1.453h-2.543v7.137H148.362z"/>
</g>
</svg>
