<?xml version="1.0" encoding="utf-8"?>
<!-- Generator: Adobe Illustrator 21.0.0, SVG Export Plug-In . SVG Version: 6.00 Build 0)  -->
<svg version="1.1" id="图层_1" xmlns="http://www.w3.org/2000/svg" xmlns:xlink="http://www.w3.org/1999/xlink" x="0px" y="0px"
	 viewBox="0 0 238 200" style="enable-background:new 0 0 238 200;" xml:space="preserve">
<style type="text/css">
	.st0{fill:#040000;}
	.st1{fill-rule:evenodd;clip-rule:evenodd;fill:#050101;}
</style>
<g>
	<path d="M167.825,61.575c-14.487,5.935-19.045,10.546-34.167,18.472c-8.999,4.717-21.436,6.45-29.725,5.423
		c-16.137-1.916-11.713-15-11.713-15c0.882-2.807,2.647-4.834,3.284-5.585C75.073,76.798,71.641,94.106,71.641,94.106
		c-4.936,20.682,9.89,33.109,9.89,33.109c12.691,12.238,35.489,11.187,35.489,11.187c27.014-1.016,42.635-13.877,44.601-32.319
		C163.523,88.246,153.615,77.095,167.825,61.575z M142.284,110.692c0,0-32.298,16.554-59.895-0.956
		c-6.804-4.317-3.363-12.423-3.363-12.423s20.948,43.633,67.555-1.441C146.581,95.872,150.806,105.817,142.284,110.692z"/>
</g>
</svg>
