<?xml version="1.0" encoding="utf-8"?>
<!-- Generator: Adobe Illustrator 21.0.0, SVG Export Plug-In . SVG Version: 6.00 Build 0)  -->
<svg version="1.1" id="图层_1" xmlns="http://www.w3.org/2000/svg" xmlns:xlink="http://www.w3.org/1999/xlink" x="0px" y="0px"
	 viewBox="0 0 238 200" style="enable-background:new 0 0 238 200;" xml:space="preserve">
<style type="text/css">
	.st0{fill:#040000;}
	.st1{fill:#FFFFFF;}
	.st2{fill-rule:evenodd;clip-rule:evenodd;fill:#050101;}
	.st3{fill-rule:evenodd;clip-rule:evenodd;fill:#FFFFFF;}
</style>
<g>
	<g>
		<path class="st3" d="M130.435,104.547c0,0-12.678,10.5-20.874,30.625c-0.441-2.256-0.777-5.273,0.002-8.807
			c0.778-3.531,3.384-3.528,2.375-7.12c-1.592,0.695-2.386,1.024-4.163,1.389c-2.048,0.418-0.205,9.537-2.657,10.902
			c0.091-7.703-0.34-9.888-0.99-12.861c-2.596,0.297-4.555,1.62-6.922,4.529c-4.305,5.292-4.935,11.857-4.935,11.857
			c7.808,1.545,0.944,7.832,14.947,18.487c17.007-22.095,39.646-19.049,38.881-37.016
			C141.549,114.668,132.625,112.42,130.435,104.547z M151.259,49.536c-0.108,1.782-0.058,3.89-0.058,3.89
			c-0.07,4.657-1.436,6.259-6.854,8.144c-1.838,0.64-5.737,2.037-8.976,3.204c0.907-1.325,1.595-2.931,1.787-4.563
			c0.1-0.566,0.425-1.855,2.323-2.734c0.813-0.377,1.765-0.862,2.951-1.44c3.399-1.658,3.978-3.699,4.234-8.589l0.255-5.263
			c0.256-4.903,1.268-3.791,1.424-5.73c-1.206-0.064-4.397,0.63-4.853,5.308c-0.174,1.776-0.115,3.534-0.304,6.243
			c-0.297,4.219-2.632,4.826-5.976,6.092v-1.176c0-12.631,2.315-9.487,2.045-12.7c-2.349,0.279-5.602,1.848-6.056,7.844
			c-0.324,4.316-0.39,8.957-0.39,8.957c0,7.905-6.172,10.898-11.38,14.041c-4.089,2.468-6.285,5.291-7.417,7.397
			c-1.509-0.635-3.171-1.086-4.857-1.239c-0.562-0.553-0.482-1.691-0.114-3.493c0.042-0.209,0.084-0.421,0.122-0.633
			c0.304-1.683,1.444-2.822,2.669-3.479c3.827-2.048,9.782-5.306,12.811-8.162c2.659-2.505,2.994-4.399,2.994-9.296v-2.858
			c0-4.91,1.092-3.808,1.146-5.753c-1.205,0-4.379,0.759-4.591,5.455c-0.081,1.785,0,3.89,0,3.89c0,4.659-1.587,5.172-5.28,7.608
			c-2.103,1.388-6.199,3.275-9.124,4.459c0-0.888-0.014-1.804-0.045-2.747c-0.019-0.54-0.033-1.06-0.046-1.561
			c0.03-1.555,0.62-2.072,1.976-2.806c0.932-0.506,2.087-1.164,3.656-2.033c3.308-1.835,3.61-3.895,3.61-8.792v-2.857
			c0-4.911,1.092-3.809,1.145-5.754c-1.205,0-4.209,0.759-4.421,5.455c-0.08,1.784,0,3.89,0,3.89c0,4.317-2.524,4.996-5.985,6.55
			c0.245-9.174,1.843-6.763,1.834-9.329c-1.392,0.143-4.702,0.681-5.175,5.935c-0.382,4.218-0.593,11.384-0.593,11.384
			c0.044,3.841-0.3,6.903-0.865,9.346c-2.078-0.529-2.872-1.168-3.017-2.429c-0.224-1.959-0.153-3.307,0.043-6.269
			c0.293-4.428,1.175-4.143,1.012-5.588c-1.202-0.095-3.899,0.805-4.26,5.492c-0.593,7.667-0.348,10.021,1.361,11.143
			c1.269,0.834,3.694,0.84,3.049,2.609c-1.802,3.28-4.005,4.222-4.894,4.462c-0.958,1.388-2.593,4.279-2.881,5.955
			c0.394,0.77,7.707,0.095,11.841,0.631c2.562,0.331,4.241,1.94,3.446,3.316c-1.218,2.111-0.633-1.059-3.438-1.601
			c-2.313-0.449-9.633-0.258-10.875,0.134c-0.626,0.198-0.188,3.382,0.568,5.415c-0.196,0.263-1.463,0.437-1.841-0.198
			c-1.523-2.558-0.978-5.424-2.664-3.601c-4.147,5.897-7.587,9.129-10.062,11.204c0.885,2.321,2.618,6.685,9.19,4.817
			c0.055-0.014,0.106-0.032,0.16-0.047c0.078-0.014,0.16-0.03,0.248-0.055c0.932-0.245,2.334-0.124,3.589,0.679
			c1.599,1.021,1.115,3.287,1.885,3.196c1.652-1.371,1.026-4.61-0.194-5.682c-0.028-0.023-0.057-0.046-0.086-0.069
			c1.958-0.674,3.512-0.906,5.124,0.191c2.822,1.92,4.274,8.852,4.505,12.71c8.1-0.366,13.093-8.784,19.733-13.472
			c-1.967-3.42-3.905-7.071-4.17-12.931c-0.391-8.701,11.712-4.551,15.349-10.481c1.671-2.726,1.497-6.963,1.65-7.57
			c-7.296,0.756-17.968,5.342-18.766,10.774c-0.022-0.128-0.053-0.259-0.093-0.389c-1.533-6.698,2.399-8.459,5.639-10.37
			c0.157-0.093,0.309-0.188,0.461-0.283l-0.046,0.067c10.57-5.769,21.01-7.683,25.083-11.405c2.695-2.465,3.057-4.354,3.13-9.25
			l0.043-2.857c0.073-4.91,1.149-3.791,1.231-5.734C154.726,44.134,151.542,44.845,151.259,49.536z"/>
	</g>
</g>
<g>
	<path class="st1" d="M90.563,163.04v-8.52h1.734v7.072h4.312v1.447H90.563z"/>
	<path class="st1" d="M105.592,163.04h-1.887l-0.75-1.951h-3.434l-0.709,1.951h-1.84l3.346-8.59h1.834L105.592,163.04z
		 M102.399,159.642l-1.184-3.188l-1.16,3.188H102.399z"/>
	<path class="st1" d="M106.489,163.04v-8.59h2.596l1.559,5.859l1.541-5.859h2.602v8.59h-1.611v-6.762l-1.705,6.762h-1.67
		l-1.699-6.762v6.762H106.489z"/>
	<path class="st1" d="M116.508,163.04v-8.59h2.783c1.055,0,1.742,0.043,2.062,0.129c0.492,0.129,0.904,0.409,1.236,0.841
		s0.498,0.989,0.498,1.673c0,0.527-0.096,0.971-0.287,1.33s-0.435,0.642-0.729,0.847s-0.595,0.341-0.899,0.407
		c-0.414,0.082-1.014,0.123-1.799,0.123h-1.131v3.24H116.508z M118.243,155.904v2.438h0.949c0.684,0,1.141-0.045,1.371-0.135
		s0.411-0.23,0.542-0.422s0.196-0.414,0.196-0.668c0-0.312-0.092-0.57-0.275-0.773s-0.416-0.33-0.697-0.381
		c-0.207-0.039-0.623-0.059-1.248-0.059H118.243z"/>
	<path class="st1" d="M131.367,163.04h-1.887l-0.75-1.951h-3.434l-0.709,1.951h-1.84l3.346-8.59h1.834L131.367,163.04z
		 M128.174,159.642l-1.184-3.188l-1.16,3.188H128.174z"/>
	<path class="st1" d="M132.293,163.04v-8.59h3.65c0.918,0,1.585,0.077,2.001,0.231s0.749,0.429,0.999,0.823s0.375,0.846,0.375,1.354
		c0,0.645-0.189,1.177-0.568,1.597s-0.945,0.685-1.699,0.794c0.375,0.219,0.685,0.459,0.929,0.721s0.573,0.727,0.987,1.395
		l1.049,1.676h-2.074l-1.254-1.869c-0.445-0.668-0.75-1.089-0.914-1.263s-0.338-0.293-0.521-0.357s-0.475-0.097-0.873-0.097h-0.352
		v3.586H132.293z M134.028,158.083h1.283c0.832,0,1.352-0.035,1.559-0.105s0.369-0.191,0.486-0.363s0.176-0.387,0.176-0.645
		c0-0.289-0.077-0.522-0.231-0.7s-0.372-0.29-0.653-0.337c-0.141-0.02-0.562-0.029-1.266-0.029h-1.354V158.083z"/>
	<path class="st1" d="M140.948,154.451h3.17c0.715,0,1.26,0.055,1.635,0.164c0.504,0.148,0.936,0.412,1.295,0.791
		s0.633,0.843,0.82,1.392s0.281,1.226,0.281,2.03c0,0.707-0.088,1.316-0.264,1.828c-0.215,0.625-0.521,1.131-0.92,1.518
		c-0.301,0.293-0.707,0.521-1.219,0.686c-0.383,0.121-0.895,0.182-1.535,0.182h-3.264V154.451z M142.682,155.904v5.689h1.295
		c0.484,0,0.834-0.027,1.049-0.082c0.281-0.07,0.515-0.189,0.7-0.357s0.337-0.444,0.454-0.829s0.176-0.909,0.176-1.573
		s-0.059-1.174-0.176-1.529s-0.281-0.633-0.492-0.832s-0.479-0.334-0.803-0.404c-0.242-0.055-0.717-0.082-1.424-0.082H142.682z"/>
</g>
</svg>
