<?xml version="1.0" encoding="utf-8"?>
<!-- Generator: Adobe Illustrator 21.0.0, SVG Export Plug-In . SVG Version: 6.00 Build 0)  -->
<svg version="1.1" id="图层_1" xmlns="http://www.w3.org/2000/svg" xmlns:xlink="http://www.w3.org/1999/xlink" x="0px" y="0px"
	 viewBox="0 0 238 200" style="enable-background:new 0 0 238 200;" xml:space="preserve">
<style type="text/css">
	.st0{fill:#040000;}
	.st1{fill:#FFFFFF;}
	.st2{fill-rule:evenodd;clip-rule:evenodd;fill:#050101;}
	.st3{fill-rule:evenodd;clip-rule:evenodd;fill:#FFFFFF;}
</style>
<g>
	<polygon class="st1" points="118.95,126.153 109.805,116.764 162.599,63.972 171.863,73.236 	"/>
	<polygon class="st1" points="75.436,126.117 66.135,116.764 119.029,64.012 128.293,73.276 	"/>
	
		<rect x="134.26" y="57.694" transform="matrix(0.7071 -0.7071 0.7071 0.7071 -25.9495 127.4001)" class="st1" width="13.101" height="74.659"/>
	<polygon class="st1" points="79.169,129.865 66.135,116.764 103.298,116.764 116.14,129.865 	"/>
	<polygon class="st1" points="135.087,73.236 122.691,60.134 158.763,60.134 171.865,73.236 	"/>
	<polygon class="st1" points="122.562,129.865 109.805,116.764 171.865,116.764 158.763,129.865 	"/>
</g>
<g>
	<path class="st1" d="M90.368,163.04v-8.52h1.734v7.072h4.312v1.447H90.368z"/>
	<path class="st1" d="M105.398,163.04h-1.887l-0.75-1.951h-3.434l-0.709,1.951h-1.84l3.346-8.59h1.834L105.398,163.04z
		 M102.204,159.642l-1.184-3.188l-1.16,3.188H102.204z"/>
	<path class="st1" d="M106.294,163.04v-8.59h2.596l1.559,5.859l1.541-5.859h2.602v8.59h-1.611v-6.762l-1.705,6.762h-1.67
		l-1.699-6.762v6.762H106.294z"/>
	<path class="st1" d="M116.314,163.04v-8.59h2.783c1.055,0,1.742,0.043,2.062,0.129c0.492,0.129,0.904,0.409,1.236,0.841
		s0.498,0.989,0.498,1.673c0,0.527-0.096,0.971-0.287,1.33s-0.435,0.642-0.729,0.847s-0.595,0.341-0.899,0.407
		c-0.414,0.082-1.014,0.123-1.799,0.123h-1.131v3.24H116.314z M118.048,155.904v2.438h0.949c0.684,0,1.141-0.045,1.371-0.135
		s0.411-0.23,0.542-0.422s0.196-0.414,0.196-0.668c0-0.312-0.092-0.57-0.275-0.773s-0.416-0.33-0.697-0.381
		c-0.207-0.039-0.623-0.059-1.248-0.059H118.048z"/>
	<path class="st1" d="M131.173,163.04h-1.887l-0.75-1.951h-3.434l-0.709,1.951h-1.84l3.346-8.59h1.834L131.173,163.04z
		 M127.98,159.642l-1.184-3.188l-1.16,3.188H127.98z"/>
	<path class="st1" d="M132.099,163.04v-8.59h3.65c0.918,0,1.585,0.077,2.001,0.231s0.749,0.429,0.999,0.823s0.375,0.846,0.375,1.354
		c0,0.645-0.189,1.177-0.568,1.597s-0.945,0.685-1.699,0.794c0.375,0.219,0.685,0.459,0.929,0.721s0.573,0.727,0.987,1.395
		l1.049,1.676h-2.074l-1.254-1.869c-0.445-0.668-0.75-1.089-0.914-1.263s-0.338-0.293-0.521-0.357s-0.475-0.097-0.873-0.097h-0.352
		v3.586H132.099z M133.833,158.083h1.283c0.832,0,1.352-0.035,1.559-0.105s0.369-0.191,0.486-0.363s0.176-0.387,0.176-0.645
		c0-0.289-0.077-0.522-0.231-0.7s-0.372-0.29-0.653-0.337c-0.141-0.02-0.562-0.029-1.266-0.029h-1.354V158.083z"/>
	<path class="st1" d="M140.753,154.451h3.17c0.715,0,1.26,0.055,1.635,0.164c0.504,0.148,0.936,0.412,1.295,0.791
		s0.633,0.843,0.82,1.392s0.281,1.226,0.281,2.03c0,0.707-0.088,1.316-0.264,1.828c-0.215,0.625-0.521,1.131-0.92,1.518
		c-0.301,0.293-0.707,0.521-1.219,0.686c-0.383,0.121-0.895,0.182-1.535,0.182h-3.264V154.451z M142.488,155.904v5.689h1.295
		c0.484,0,0.834-0.027,1.049-0.082c0.281-0.07,0.515-0.189,0.7-0.357s0.337-0.444,0.454-0.829s0.176-0.909,0.176-1.573
		s-0.059-1.174-0.176-1.529s-0.281-0.633-0.492-0.832s-0.479-0.334-0.803-0.404c-0.242-0.055-0.717-0.082-1.424-0.082H142.488z"/>
</g>
</svg>
