<?xml version="1.0" encoding="utf-8"?>
<!-- Generator: Adobe Illustrator 21.0.0, SVG Export Plug-In . SVG Version: 6.00 Build 0)  -->
<svg version="1.1" id="图层_1" xmlns="http://www.w3.org/2000/svg" xmlns:xlink="http://www.w3.org/1999/xlink" x="0px" y="0px"
	 viewBox="0 0 238 200" style="enable-background:new 0 0 238 200;" xml:space="preserve">
<style type="text/css">
	.st0{fill:#040000;}
	.st1{fill:#FFFFFF;}
	.st2{fill-rule:evenodd;clip-rule:evenodd;fill:#050101;}
	.st3{fill-rule:evenodd;clip-rule:evenodd;fill:#FFFFFF;}
</style>
<g>
	<path class="st1" d="M165.377,58.329c-13.826,5.664-18.176,10.065-32.608,17.629c-8.588,4.502-20.457,6.156-28.368,5.175
		c-15.4-1.829-11.178-14.315-11.178-14.315c0.842-2.678,2.527-4.613,3.134-5.33C76.859,72.856,73.584,89.375,73.584,89.375
		c-4.71,19.738,9.439,31.598,9.439,31.598c12.112,11.68,33.869,10.676,33.869,10.676c25.781-0.97,40.689-13.244,42.565-30.843
		C161.272,83.782,151.815,73.14,165.377,58.329z M141.002,105.203c0,0-30.824,15.798-57.161-0.912
		c-6.494-4.12-3.209-11.856-3.209-11.856s19.992,41.642,64.472-1.375C145.103,91.06,149.134,100.551,141.002,105.203z"/>
</g>
<g>
	<path class="st1" d="M85.321,163.04v-8.59h2.783c1.055,0,1.742,0.043,2.062,0.129c0.492,0.129,0.904,0.409,1.236,0.841
		s0.498,0.989,0.498,1.673c0,0.527-0.096,0.971-0.287,1.33s-0.435,0.642-0.729,0.847s-0.595,0.341-0.899,0.407
		c-0.414,0.082-1.014,0.123-1.799,0.123h-1.131v3.24H85.321z M87.055,155.904v2.438h0.949c0.684,0,1.141-0.045,1.371-0.135
		s0.411-0.23,0.542-0.422s0.196-0.414,0.196-0.668c0-0.312-0.092-0.57-0.275-0.773s-0.416-0.33-0.697-0.381
		c-0.207-0.039-0.623-0.059-1.248-0.059H87.055z"/>
	<path class="st1" d="M92.973,158.798c0-0.875,0.131-1.609,0.393-2.203c0.195-0.438,0.462-0.83,0.8-1.178s0.708-0.605,1.11-0.773
		c0.535-0.227,1.152-0.34,1.852-0.34c1.266,0,2.278,0.393,3.038,1.178s1.14,1.877,1.14,3.275c0,1.387-0.377,2.472-1.131,3.255
		s-1.762,1.175-3.023,1.175c-1.277,0-2.293-0.39-3.047-1.169S92.973,160.165,92.973,158.798z M94.76,158.74
		c0,0.973,0.225,1.71,0.674,2.212s1.02,0.753,1.711,0.753s1.259-0.249,1.702-0.747s0.665-1.245,0.665-2.241
		c0-0.984-0.216-1.719-0.647-2.203s-1.005-0.727-1.72-0.727s-1.291,0.245-1.729,0.735S94.76,157.751,94.76,158.74z"/>
	<path class="st1" d="M103.877,163.04l-2.051-8.59h1.775l1.295,5.9l1.57-5.9h2.062l1.506,6l1.318-6h1.746l-2.086,8.59h-1.84
		l-1.711-6.422l-1.705,6.422H103.877z"/>
	<path class="st1" d="M113.985,163.04v-8.59h6.369v1.453h-4.635v1.904h4.312v1.447h-4.312v2.338h4.799v1.447H113.985z"/>
	<path class="st1" d="M121.994,163.04v-8.59h3.65c0.918,0,1.585,0.077,2.001,0.231c0.416,0.154,0.749,0.429,0.999,0.823
		s0.375,0.846,0.375,1.354c0,0.645-0.189,1.177-0.568,1.597s-0.945,0.685-1.699,0.794c0.375,0.219,0.685,0.459,0.929,0.721
		s0.573,0.727,0.987,1.395l1.049,1.676h-2.074l-1.254-1.869c-0.445-0.668-0.75-1.089-0.914-1.263s-0.338-0.293-0.521-0.357
		s-0.475-0.097-0.873-0.097h-0.352v3.586H121.994z M123.729,158.083h1.283c0.832,0,1.352-0.035,1.559-0.105s0.369-0.191,0.486-0.363
		s0.176-0.387,0.176-0.645c0-0.289-0.077-0.522-0.231-0.7s-0.372-0.29-0.653-0.337c-0.141-0.02-0.562-0.029-1.266-0.029h-1.354
		V158.083z"/>
	<path class="st1" d="M136.151,159.882l1.682,0.533c-0.258,0.938-0.687,1.634-1.286,2.089s-1.36,0.683-2.282,0.683
		c-1.141,0-2.078-0.39-2.812-1.169s-1.102-1.845-1.102-3.196c0-1.43,0.369-2.54,1.107-3.331s1.709-1.187,2.912-1.187
		c1.051,0,1.904,0.311,2.561,0.932c0.391,0.367,0.684,0.895,0.879,1.582l-1.717,0.41c-0.102-0.445-0.313-0.797-0.636-1.055
		s-0.714-0.387-1.175-0.387c-0.637,0-1.153,0.229-1.55,0.686s-0.595,1.197-0.595,2.221c0,1.086,0.195,1.859,0.586,2.32
		s0.898,0.691,1.523,0.691c0.461,0,0.857-0.146,1.189-0.439S136.006,160.511,136.151,159.882z"/>
	<path class="st1" d="M147.067,163.04h-1.887l-0.75-1.951h-3.434l-0.709,1.951h-1.84l3.346-8.59h1.834L147.067,163.04z
		 M143.873,159.642l-1.184-3.188l-1.16,3.188H143.873z"/>
	<path class="st1" d="M149.03,163.04v-7.137h-2.549v-1.453h6.826v1.453h-2.543v7.137H149.03z"/>
</g>
</svg>
