<?xml version="1.0" encoding="utf-8"?>
<!-- Generator: Adobe Illustrator 21.0.0, SVG Export Plug-In . SVG Version: 6.00 Build 0)  -->
<svg version="1.1" id="图层_1" xmlns="http://www.w3.org/2000/svg" xmlns:xlink="http://www.w3.org/1999/xlink" x="0px" y="0px"
	 viewBox="0 0 238 200" style="enable-background:new 0 0 238 200;" xml:space="preserve">
<style type="text/css">
	.st0{fill:#040000;}
	.st1{fill:#FFFFFF;}
	.st2{fill-rule:evenodd;clip-rule:evenodd;fill:#050101;}
	.st3{fill-rule:evenodd;clip-rule:evenodd;fill:#FFFFFF;}
</style>
<path class="st1" d="M157.897,58.141H80.783l21.11,36.844l-21.79,37.004h77.114l-21.109-36.844L157.897,58.141z M91.271,64.219
	h55.994l-14.636,24.854l-13.441-23.459l-13.745,23.341L91.271,64.219z M129.078,95.102l-10.194,17.312l-9.962-17.388l10.194-17.312
	L129.078,95.102z M146.729,125.91H90.735l14.636-24.854l13.441,23.459l13.745-23.341L146.729,125.91z"/>
<g>
	<path class="st1" d="M79.819,163.04v-8.59h1.734v8.59H79.819z"/>
	<path class="st1" d="M83.223,163.04v-8.59h1.688l3.516,5.736v-5.736h1.611v8.59h-1.74l-3.463-5.602v5.602H83.223z"/>
	<path class="st1" d="M93.805,163.04v-7.137h-2.549v-1.453h6.826v1.453h-2.543v7.137H93.805z"/>
	<path class="st1" d="M99.201,163.04v-8.59h6.369v1.453h-4.635v1.904h4.312v1.447h-4.312v2.338h4.799v1.447H99.201z"/>
	<path class="st1" d="M107.211,163.04v-8.59h3.65c0.918,0,1.585,0.077,2.001,0.231s0.749,0.429,0.999,0.823s0.375,0.846,0.375,1.354
		c0,0.645-0.189,1.177-0.568,1.597s-0.945,0.685-1.699,0.794c0.375,0.219,0.685,0.459,0.929,0.721s0.573,0.727,0.987,1.395
		l1.049,1.676h-2.074l-1.254-1.869c-0.445-0.668-0.75-1.089-0.914-1.263s-0.338-0.293-0.521-0.357s-0.475-0.097-0.873-0.097h-0.352
		v3.586H107.211z M108.946,158.083h1.283c0.832,0,1.352-0.035,1.559-0.105s0.369-0.191,0.486-0.363s0.176-0.387,0.176-0.645
		c0-0.289-0.077-0.522-0.231-0.7s-0.372-0.29-0.653-0.337c-0.141-0.02-0.562-0.029-1.266-0.029h-1.354V158.083z"/>
	<path class="st1" d="M123.618,163.04h-1.887l-0.75-1.951h-3.434l-0.709,1.951h-1.84l3.346-8.59h1.834L123.618,163.04z
		 M120.424,159.642l-1.184-3.188l-1.16,3.188H120.424z"/>
	<path class="st1" d="M130.034,159.882l1.682,0.533c-0.258,0.938-0.687,1.634-1.286,2.089s-1.36,0.683-2.282,0.683
		c-1.141,0-2.078-0.39-2.812-1.169s-1.102-1.845-1.102-3.196c0-1.43,0.369-2.54,1.107-3.331s1.709-1.187,2.912-1.187
		c1.051,0,1.904,0.311,2.561,0.932c0.391,0.367,0.684,0.895,0.879,1.582l-1.717,0.41c-0.102-0.445-0.313-0.797-0.636-1.055
		s-0.714-0.387-1.175-0.387c-0.637,0-1.153,0.229-1.55,0.686s-0.595,1.197-0.595,2.221c0,1.086,0.195,1.859,0.586,2.32
		s0.898,0.691,1.523,0.691c0.461,0,0.857-0.146,1.189-0.439S129.889,160.511,130.034,159.882z"/>
	<path class="st1" d="M135.137,163.04v-7.137h-2.549v-1.453h6.826v1.453h-2.543v7.137H135.137z"/>
	<path class="st1" d="M140.481,163.04v-8.59h1.734v8.59H140.481z"/>
	<path class="st1" d="M146.059,163.04l-3.07-8.59h1.881l2.174,6.357l2.104-6.357h1.84l-3.076,8.59H146.059z"/>
	<path class="st1" d="M151.871,163.04v-8.59h6.369v1.453h-4.635v1.904h4.312v1.447h-4.312v2.338h4.799v1.447H151.871z"/>
</g>
</svg>
