<?xml version="1.0" encoding="utf-8"?>
<!-- Generator: Adobe Illustrator 21.0.0, SVG Export Plug-In . SVG Version: 6.00 Build 0)  -->
<svg version="1.1" id="图层_1" xmlns="http://www.w3.org/2000/svg" xmlns:xlink="http://www.w3.org/1999/xlink" x="0px" y="0px"
	 viewBox="0 0 238 200" style="enable-background:new 0 0 238 200;" xml:space="preserve">
<style type="text/css">
	.st0{fill:#040000;}
	.st1{fill-rule:evenodd;clip-rule:evenodd;fill:#050101;}
</style>
<g>
	<g>
		<path class="st1" d="M132.493,111.265c0,0-14.959,12.39-24.63,36.136c-0.52-2.662-0.917-6.221,0.002-10.391
			c0.918-4.166,3.993-4.163,2.802-8.402c-1.879,0.82-2.816,1.209-4.912,1.639c-2.417,0.494-0.242,11.253-3.135,12.864
			c0.108-9.089-0.401-11.667-1.169-15.175c-3.063,0.351-5.375,1.912-8.168,5.344c-5.08,6.244-5.823,13.99-5.823,13.99
			c9.212,1.824,1.114,9.242,17.637,21.814c20.067-26.071,46.78-22.477,45.878-43.677
			C145.607,123.208,135.077,120.555,132.493,111.265z M157.064,46.356c-0.127,2.103-0.069,4.589-0.069,4.589
			c-0.083,5.495-1.694,7.385-8.088,9.609c-2.169,0.755-6.77,2.404-10.591,3.781c1.071-1.563,1.883-3.458,2.109-5.384
			c0.118-0.668,0.502-2.188,2.741-3.226c0.959-0.445,2.083-1.018,3.482-1.699c4.01-1.956,4.694-4.364,4.996-10.134l0.3-6.21
			c0.302-5.785,1.496-4.474,1.68-6.761c-1.423-0.075-5.188,0.744-5.726,6.264c-0.205,2.096-0.136,4.17-0.359,7.367
			c-0.351,4.978-3.106,5.694-7.051,7.189v-1.388c0-14.904,2.731-11.194,2.413-14.985c-2.771,0.329-6.611,2.181-7.145,9.255
			c-0.383,5.092-0.461,10.568-0.461,10.568c0,9.328-7.283,12.859-13.428,16.567c-4.825,2.912-7.416,6.244-8.751,8.729
			c-1.78-0.75-3.741-1.281-5.731-1.462c-0.663-0.652-0.569-1.996-0.135-4.121c0.05-0.247,0.099-0.496,0.144-0.747
			c0.359-1.986,1.704-3.33,3.149-4.104c4.516-2.417,11.543-6.261,15.117-9.631c3.138-2.956,3.532-5.191,3.532-10.969v-3.372
			c0-5.794,1.288-4.494,1.352-6.788c-1.422,0-5.167,0.896-5.417,6.436c-0.096,2.106,0,4.59,0,4.59c0,5.497-1.873,6.102-6.231,8.977
			c-2.481,1.637-7.314,3.865-10.765,5.262c0-1.048-0.017-2.128-0.053-3.241c-0.022-0.638-0.039-1.251-0.054-1.842
			c0.035-1.835,0.732-2.445,2.331-3.311c1.1-0.597,2.463-1.374,4.314-2.398c3.903-2.166,4.26-4.596,4.26-10.374v-3.371
			c0-5.795,1.288-4.495,1.351-6.789c-1.422,0-4.966,0.896-5.217,6.437c-0.095,2.105,0,4.59,0,4.59c0,5.094-2.978,5.895-7.062,7.728
			c0.289-10.825,2.175-7.98,2.164-11.008c-1.643,0.169-5.548,0.804-6.106,7.003c-0.451,4.977-0.7,13.432-0.7,13.432
			c0.052,4.533-0.354,8.145-1.021,11.028c-2.452-0.625-3.389-1.379-3.56-2.866c-0.264-2.311-0.18-3.902,0.051-7.397
			c0.345-5.224,1.386-4.888,1.194-6.594c-1.418-0.112-4.6,0.95-5.027,6.48c-0.699,9.047-0.41,11.824,1.606,13.148
			c1.497,0.984,4.358,0.991,3.597,3.079c-2.126,3.87-4.726,4.982-5.774,5.265c-1.13,1.638-3.06,5.049-3.399,7.026
			c0.465,0.908,9.094,0.112,13.972,0.744c3.023,0.391,5.005,2.289,4.066,3.913c-1.438,2.491-0.747-1.25-4.057-1.889
			c-2.729-0.53-11.366-0.305-12.833,0.158c-0.739,0.233-0.222,3.991,0.67,6.39c-0.232,0.311-1.726,0.516-2.172-0.234
			c-1.797-3.019-1.153-6.399-3.143-4.249c-4.893,6.959-8.952,10.772-11.873,13.22c1.045,2.739,3.089,7.887,10.844,5.684
			c0.065-0.017,0.126-0.038,0.189-0.056c0.092-0.016,0.189-0.035,0.292-0.065c1.1-0.289,2.754-0.146,4.235,0.801
			c1.887,1.205,1.315,3.879,2.224,3.771c1.949-1.618,1.211-5.44-0.229-6.704c-0.033-0.027-0.067-0.054-0.101-0.081
			c2.31-0.796,4.143-1.07,6.046,0.226c3.33,2.265,5.044,10.445,5.316,14.997c9.557-0.432,15.449-10.365,23.285-15.896
			c-2.321-4.035-4.607-8.344-4.92-15.258c-0.462-10.267,13.82-5.37,18.111-12.368c1.972-3.216,1.767-8.216,1.947-8.932
			c-8.609,0.892-21.201,6.303-22.142,12.713c-0.026-0.151-0.063-0.305-0.11-0.459c-1.809-7.903,2.831-9.982,6.654-12.236
			c0.185-0.11,0.365-0.221,0.544-0.334l-0.055,0.079c12.472-6.808,24.79-9.065,29.596-13.458c3.179-2.908,3.607-5.137,3.693-10.915
			l0.05-3.372c0.087-5.793,1.356-4.473,1.453-6.766C161.155,39.981,157.398,40.821,157.064,46.356z"/>
	</g>
</g>
</svg>
