<?xml version="1.0" encoding="utf-8"?>
<!-- Generator: Adobe Illustrator 21.0.0, SVG Export Plug-In . SVG Version: 6.00 Build 0)  -->
<svg version="1.1" id="图层_1" xmlns="http://www.w3.org/2000/svg" xmlns:xlink="http://www.w3.org/1999/xlink" x="0px" y="0px"
	 viewBox="0 0 238 200" style="enable-background:new 0 0 238 200;" xml:space="preserve">
<style type="text/css">
	.st0{fill:#040000;}
	.st1{fill-rule:evenodd;clip-rule:evenodd;fill:#050101;}
</style>
<g>
	<g>
		<path d="M96.645,97.9H76.045l0.006-41.187h20.593c11.355,0,20.593,9.238,20.593,20.593C117.238,88.662,107.999,97.9,96.645,97.9z
			 M88.507,85.444h8.138c4.487,0,8.138-3.651,8.138-8.138c0-4.487-3.651-8.138-8.138-8.138h-8.138V85.444z"/>
	</g>
	<g>
		<path d="M161.502,97.9h-20.599c-11.355,0-20.593-9.238-20.593-20.594c0-11.355,9.238-20.593,20.593-20.593h20.599v12.456h-20.599
			c-4.487,0-8.138,3.651-8.138,8.138c0,4.488,3.651,8.138,8.138,8.138h20.599V97.9z"/>
	</g>
	<g>
		<path d="M96.645,143.287c-11.355,0-20.593-9.238-20.593-20.593v-20.598h12.456v20.598c0,4.487,3.651,8.138,8.138,8.138
			s8.138-3.651,8.138-8.138v-20.598h12.456v20.598C117.238,134.049,107.999,143.287,96.645,143.287z"/>
	</g>
	<g>
		
			<rect x="117.9" y="116.116" transform="matrix(0.7071 -0.7071 0.7071 0.7071 -45.2368 135.4751)" width="46.028" height="12.455"/>
	</g>
	<g>
		
			<rect x="135.05" y="99.329" transform="matrix(0.7071 -0.7071 0.7071 0.7071 -45.1301 135.7364)" width="12.455" height="46.028"/>
	</g>
</g>
</svg>
